<svg xmlns="http://www.w3.org/2000/svg" fill="none" viewBox="0 0 70 70"><rect width="70" height="70" fill="#fff" rx="35"/><path fill="#713EE7" d="M35 35C41.2132 35 46.25 29.9632 46.25 23.75C46.25 17.5368 41.2132 12.5 35 12.5C28.7868 12.5 23.75 17.5368 23.75 23.75C23.75 29.9632 28.7868 35 35 35Z"/><path fill="#713EE7" d="M48.5236 39.5H21.4764C19.0081 39.5 17 41.5081 17 43.9764V45.6875C17 49.4135 19.1206 52.6355 22.9704 54.7584C26.1733 56.5269 30.446 57.5 35 57.5C43.6692 57.5 53 53.8033 53 45.6875V43.9764C53 41.5081 50.9919 39.5 48.5236 39.5Z"/></svg>